<svg xmlns="http://www.w3.org/2000/svg" width="64" height="64" viewBox="0 0 16.93 16.93"><path d="M0 0h16.93v16.93H0z" fill="#fff"/><g aria-label="G&amp;D" style="line-height:36.27592468px;-inkscape-font-specification:'Noto Mono'" font-weight="400" font-size="58.04" font-family="Margarine" letter-spacing="0" word-spacing="0" fill="#212529" stroke-width="1.45"><path d="M6.6 8.74v.19q-.01.04-.05.07l-.03.1q-.02.06-.07.1l-.12.04-.13.01-.03.17-.06.22-.07.2-.08.16-.05.04-.04.05-.03.08-.02.08-.04.02-.02.06v.06q-.15.06-.27.15-.1.1-.16.25-.11.05-.23.06-.11.01-.23.05l-.09.05-.09.04-.09.03-.13.04-.12.03-.08.01h-.08l-.03-.03-.05-.01-.12-.01-.06-.01-.05-.03-.07-.03-.1-.01h-.1q-.05.02-.08.07Q3.5 11 3.45 11h-.16l-.02-.03v-.02q0-.02-.02-.03H3.2l-.04-.01-.05-.05-.06-.12q-.14-.05-.24-.14-.1-.1-.14-.23l-.22-.2-.23-.17-.03-.14q-.02-.08-.08-.12v-.03-.02l-.01-.1-.04-.09-.04-.08-.03-.1q-.02-.08-.02-.17v-.18q-.01-.06-.05-.12-.03-.07-.03-.13l.01-.09.03-.08.02-.09-.01-.09.06-.1.06-.14.06-.16.03-.11v-.11q0-.06.03-.12.01-.06.04-.11l.07-.1.06-.11.02-.12q.07-.06.11-.14l.07-.16q.1-.04.17-.1.08-.06.12-.16.06 0 .1-.02l.08-.06.07-.07.08-.06q.12-.07.23-.08l.22-.03.23-.06q.11-.04.24-.15h.04q.07 0 .12.05.03-.03.07-.04l.08-.04.44.06q.23.02.45.06.06.07.14.13.07.05.12.13.06 0 .11.02.06.01.1.04.03.05.03.1l.01.11v.13l-.03.13q-.12.1-.27.15-.14.05-.3.05l-.08-.01-.07-.02q-.04 0-.07-.02h-.1q-.03 0-.03-.03 0-.04-.03-.05l-.04-.01-.03-.01Q4.73 7 4.7 6.97q-.01-.03-.05-.04-.09.05-.18.05-.1.01-.2.05-.06.02-.12.07l-.14.07q-.05.02-.11.02l-.12.02q-.06.03-.1.08l-.1.09q-.03.03-.1.06-.04.02-.12 0l-.05.03-.03.02-.04.02H3.2l-.07.17-.07.17-.1.16q-.04.08-.11.13v.07l-.01.1-.04.08-.03.1q-.02.03-.02.09 0 .07.03.14l.06.13.07.14q.03.07.03.14t-.02.12q.04.04.04.1l.02.13q.01.07.05.15.04.07.15.13l.02.1q0 .05.03.09.03.05.07.08l.08.06.09.05q.05.02.09.06h.01q.06 0 .1.02h.1q.08.05.17.08.09.03.19.03.16 0 .26-.03.11-.03.2-.08l.13-.07q.07-.04.13-.04L5 9.86q.06-.13.15-.24l.11-.05q.06-.02.1-.07 0-.04-.02-.07l-.04-.06-.02-.07v-.1q-.35-.03-.7-.03t-.7-.03q-.05-.03-.06-.09l-.04-.1-.04-.04-.03-.03-.03-.04-.02-.05v-.03-.03-.1l.02-.12.08-.04.08-.03h.08l.1-.02.04-.03.05-.02.15.01.15.01.1.02.12.03.15.01h.28l.1.04.1.03.12.04.26-.05.26-.01.2.01q.1.01.19.04.1.02.17.07.09.05.15.12zM10.96 10.93q0 .05-.03.1l-.1.1q-.05.04-.11.06l-.12.02q-.07 0-.14-.03l-.13-.07q-.06-.05-.1-.11-.05-.07-.07-.14l-.2-.08q-.1-.04-.15-.13-.05 0-.09.03l-.06.05-.05.07-.07.06-.08.03-.08.04q-.07.05-.13.12-.05.07-.13.1l-.08.04-.13.03-.14.03-.1.02-.02-.02-.02.02h-.25l-.13.01q-.06.02-.13.02t-.14-.03q0-.02-.02-.03l-.04-.03-.02-.02v-.05l-.1-.03-.08-.04-.09-.03-.1-.03q-.07-.15-.25-.22-.09-.1-.17-.22-.08-.11-.19-.2l.01-.03-.01-.09-.03-.05-.03-.05-.03-.06-.01-.06v-.07-.06l-.04-.06q.06-.07.05-.16V9.5l.01-.1q0-.05.04-.1l-.03-.1-.02-.11v-.02q.04-.03.05-.07v-.1q.11-.06.18-.16.07-.1.12-.23.07-.04.13-.1l.09-.13q.05 0 .1-.03l.07-.05.08-.07.08-.05.09-.05.1-.05.06-.06q.03-.04.08-.06Q8 7.8 7.97 7.7l-.05-.22-.03-.22v-.2-.12-.16-.17-.1l.03-.08.04-.07.01-.04.01-.05.05-.08.05-.09.05-.09.02-.08.14-.1.13-.13.04-.01.02-.04H8.66l.14-.02.14-.02.14-.01q.27 0 .53.08l.14.14q.07.07.12.15.1.16.17.33.06.17.06.35l-.02.12-.03.11-.03.11v.1l-.06.07-.05.06-.03.07v.1q-.06.05-.1.12l-.07.14-.2.13-.19.16-.18.16-.18.15q0 .05.03.09l.06.06.07.07.05.08q.07.06.12.14.05.07.13.11 0 .06.04.12l.1.13.1.1.07.03v.01l.02.06.05.09.05.07q.03.04.05.04.06-.07.1-.15.03-.08.04-.17.02 0 .03-.02l.03-.03.02-.03.04-.02.02-.1.03-.07.05-.08q.02-.04.02-.1l.15-.1q.07-.06.17-.06l.08.02.06.03.06.04.07.03.02.17v.16q0 .1-.03.2l-.07.19-.1.19-.09.18q-.01.05-.05.09l-.07.07-.07.07q-.02.04-.02.1 0 .06.03.11l.07.1.1.08.09.08q.01.07.06.13l.1.11.08.12q.04.07.04.15zM9.38 6.48q0-.06-.04-.1l-.09-.06-.1-.04-.1-.02h-.03l-.19.21-.2.19-.03.23q-.02.11-.02.23 0 .06.02.1l.03.1v.07l-.01.07q0 .06.03.1h.07l.05-.05.05-.04.06-.02q.02-.08.07-.14.05-.06.12-.1l.04-.1.06-.08.07-.08.07-.1.05-.15q.02-.09.02-.22zm.02 3.5q0-.04-.03-.07l-.06-.07-.08-.11-.06-.12-.03-.03-.02-.02q-.02-.03-.02-.07 0-.04-.03-.07-.02-.04-.07-.05l-.07-.04-.02-.04-.03-.04-.09-.09-.1-.1-.07-.1-.04-.12q-.05-.02-.07-.06l-.05-.07-.06-.06q-.03-.02-.09-.02-.1 0-.18.05l-.04.08-.06.06-.06.05-.05.06-.07.12-.06.14-.07.13q-.03.05-.09.08l.01.02v.02l-.01.07-.02.08.01.05.01.06V9.91q0 .16.04.24.04.07.1.12l.1.1q.05.03.07.11l.07.04.1.05.1.04.06.02q.04 0 .08-.04.03-.04.07-.04.02 0 .04.03.02 0 .03-.02h.04l.14-.02.1-.02.09-.04.12-.06.05-.03.04-.02.01-.03.02-.04.03-.04.06-.04.03-.05q.02-.02.02-.05.06-.01.1-.04L9.4 10zM15.03 8.56v.06q-.02.02-.02.05l.01.05.01.07-.02.13-.02.14v.2l-.02.1q0 .04-.05.07l.02.1-.02.08-.02.08-.03.09v.1q-.05.03-.08.08l-.07.1v.04h-.04l-.06.1-.06.1q0 .04-.02.05l-.02.02h-.02l-.03.01-.1.1-.09.1-.1.07q-.06.02-.16.01-.07.03-.11.1-.05.05-.08.11l-.08.02-.09.04-.09.04-.07.04-.03.05H13.41l-.16.07-.15.09-.14.04-.14.03q-.06 0-.11.03l-.1.01-.1-.01-.1-.01-.1.02q-.04.02-.09.02h-.03q-.02 0-.03-.02l-.03-.04q-.1-.03-.15-.02h-.09q-.04 0-.07-.04l-.09-.15-.03-.07-.03-.05-.02-.06v-.08l.02-.18.01-.2-.01-.1-.02-.1v-.06-.06-.05l-.01-.05.01-.07.03-.08v-.09-.09l.01-.1.01-.09q0-.07-.03-.14t-.03-.15v-.13l.02-.14.01-.15.02-.15q0-.12-.07-.2V8.4l.01-.04-.01-.08-.01-.09q0-.06.02-.1l.05-.12q-.02-.05-.01-.1l-.01-.1q0-.05-.03-.09l-.01-.08h-.01l.01-.08.02-.08q0-.06-.03-.13-.02-.06-.02-.13v-.06l.05-.05v-.02q0-.04-.02-.07V6.9v-.07-.08q0-.11-.03-.22l-.02-.17.02-.12.05-.12-.01-.05q0-.05.03-.08t.04-.08q.06-.04.12-.04l.13-.01.24.01.24.01.07-.01.06-.01q.16 0 .28.03l.28.06.12.01.12.02q.04 0 .08.03l.09.04h.1q.06 0 .09.02.03.01.05.05l.06.06.07.05.07.05q.02.01.02.04 0 .02.03.03.02.02.04 0 .03 0 .05.02.04.03.05.07.01.04.05.07.05.05.13.07.07.02.13.07.03.08.08.15.05.07.08.15l.02.04.01.03.04.03q.02.03.02.07v.06l.07.13.1.14.07.14.05.12v.22l.01.11.01.1q0 .07-.02.12-.02.05-.02.11l.02.1q.02.04.02.1zm-.75.18q0-.1-.02-.18l-.05-.17-.06-.18-.04-.17v-.08-.08l-.01-.06-.04-.13-.06-.16-.06-.16-.06-.14-.02-.09q-.06-.02-.11-.07l-.1-.08-.12-.08q-.05-.03-.1-.03h-.02l-.03-.02-.02-.02-.08-.03-.1-.01h-.1l-.07-.01q-.06 0-.11-.02l-.1-.04-.11-.02q-.06-.02-.11-.01h-.02v.03l-.01.01v.09q0 .07-.03.13-.03.07-.03.13v.06l.02.05q0 .03-.02.05-.02.02-.02.05v.06q.02.02.02.05l-.01.16v.5l.02.35v.08l-.03.08q.04.11.05.23l.01.24-.01.15-.01.14q0 .03.02.04 0 .08-.02.14-.02.05-.02.13l.01.22q.02.1.02.22l-.02.2-.01.2.03.02h.03q.07 0 .12-.02l.1-.04.1-.06.11-.05.1-.03.17-.06.17-.05.08-.02.2-.27q.1-.13.23-.25h.04v-.04l.04-.01.04-.02v-.03q0-.02.02-.03 0-.02.03-.03l.04-.02q.03-.04.04-.1l.02-.17.01-.16.02-.13q0-.05.03-.09l.02-.1z" style="-inkscape-font-specification:Margarine"/></g></svg>