<svg xmlns="http://www.w3.org/2000/svg" width="250" height="32" viewBox="0 0 66.15 8.47"><g aria-label="Goons &amp; Dragons" style="line-height:5.3437438px;-inkscape-font-specification:'Noto Mono'" font-weight="400" font-size="8.55" font-family="Margarine" letter-spacing="0" word-spacing="0" fill="#212529" stroke-width=".21"><path d="M5.54 3.72v.11l-.01.11q0 .05-.05.08l-.04.13q-.02.07-.07.11l-.15.04-.15.02-.05.2-.06.26-.09.24q-.04.12-.08.18l-.06.05q-.03.02-.05.06-.03.04-.03.09 0 .05-.03.1l-.05.02-.02.07-.01.07q-.17.07-.3.18-.14.11-.2.29-.13.06-.27.08-.13.01-.27.06l-.1.05-.11.05-.11.04-.15.04-.14.04-.1.01h-.1l-.03-.03-.05-.02-.15-.01-.06-.02-.07-.03-.09-.03q-.04-.02-.1-.02-.07 0-.13.02-.05.01-.09.07-.03-.05-.1-.05h-.18l-.03-.03v-.03q0-.02-.02-.03-.03-.02-.05-.01H1.5l-.06-.06-.08-.15q-.16-.06-.28-.16-.12-.1-.17-.27Q.8 5.52.65 5.4L.4 5.2l-.04-.17q-.03-.08-.1-.13l.01-.03v-.04l-.02-.1-.04-.11-.05-.1-.04-.11Q.1 4.3.1 4.2l-.01-.22q-.01-.07-.05-.14Q0 3.76 0 3.7l.01-.1.04-.11.02-.1-.02-.1.08-.12L.2 3l.07-.19.03-.13q.02-.06.02-.13l.02-.14q.01-.07.05-.13l.08-.13.06-.12q.03-.07.03-.14.08-.07.13-.16.06-.1.09-.2.1-.04.2-.11.09-.08.14-.2.06.01.11-.01l.1-.07.08-.08q.04-.05.1-.08.14-.07.27-.1l.26-.03q.13-.02.26-.07.14-.04.29-.18h.05q.08 0 .14.06l.08-.05.1-.03.52.06L4 .7q.07.08.16.15.08.07.14.16.07 0 .13.02l.13.05.03.12v.28l-.03.15q-.14.12-.31.18-.17.05-.35.05h-.1l-.1-.02q-.03-.02-.08-.02-.04-.02-.1-.02-.04 0-.05-.03 0-.04-.03-.06l-.04-.01-.04-.01q-.04-.02-.06-.07-.01-.04-.06-.04-.1.05-.21.06-.12 0-.23.05-.08.03-.15.08l-.16.09q-.06.02-.14.02-.07 0-.13.03-.07.03-.12.09l-.1.1q-.06.05-.13.08-.06.02-.15 0l-.05.03-.04.03-.05.02h-.06l-.09.2-.08.2-.1.19q-.06.09-.14.15v.09l-.02.1q-.01.06-.04.11l-.04.1Q1 3.46 1 3.53q0 .08.04.17l.07.15.08.16q.04.08.04.17 0 .08-.03.14.05.04.05.11l.02.16q.01.08.06.17.05.09.17.16.03.05.03.12 0 .05.03.1l.08.1.1.07q.06.02.1.06l.11.07h.02q.06 0 .11.02t.12 0l.2.1q.1.03.22.03.19 0 .32-.03.13-.04.22-.1l.17-.08q.07-.05.15-.05l.15-.3q.08-.14.19-.28l.13-.05q.06-.03.11-.08 0-.06-.03-.09L4 4.46l-.03-.08v-.12q-.41-.04-.83-.04-.41 0-.83-.03l-.07-.1Q2.23 4 2.2 3.96l-.04-.05-.04-.04-.04-.05-.02-.06v-.03-.04-.12l.03-.13q.04-.04.09-.05l.09-.03.1-.01.1-.02q.03 0 .07-.03.03-.03.05-.03l.17.01.18.02q.07 0 .13.02.07.03.13.03l.18.02h.33l.13.04q.06.01.11.04l.14.04.3-.05q.15-.02.31-.02l.23.02q.12 0 .23.04.1.03.2.09.1.05.18.14zM10.1 4q0 .15-.03.28l-.04.27-.01.18-.02.18q-.02.07-.06.13-.03.07-.08.13l-.08.13q-.04.06-.06.13l-.02.1-.02.12q-.01.06-.04.11-.02.06-.06.1-.02.04-.07.06l-.07.05q-.03.03-.04.08 0 .05-.03.09H9.3l-.03.05q0 .03-.03.06-.05.05-.15.11l-.23.12q-.12.07-.27.12l-.27.1-.25.08q-.12.03-.19.03-.05 0-.08-.02-.02 0-.03-.02l-.03-.02-.05-.01-.1.01-.1.01q-.07 0-.13-.04l-.12-.08-.14-.09q-.08-.04-.2-.03l-.04-.06-.06-.08-.05-.08-.04-.05-.08-.04q-.04-.01-.09-.05l-.03-.04q0-.02-.03-.04h-.04q-.02 0-.03-.03l-.03-.04-.02-.06-.04-.06q-.01-.02-.05-.03 0-.06-.03-.1l-.06-.11-.03-.12q0-.05-.03-.1l-.05-.1-.06-.06-.04-.08q-.02-.04-.02-.1 0-.1.02-.18l.01-.18q0-.1-.03-.19-.03-.1-.03-.2 0-.2.05-.38.05-.19.05-.38 0-.09-.02-.16-.03-.08-.03-.16 0-.06.03-.12.02-.06.07-.1v-.03-.03l.01-.05.03-.07.03-.1.02-.07.01-.06.04-.04.05-.04.04-.05q.03-.06.02-.12 0-.07.03-.12l.06-.03.05-.09.02-.03.03-.02.03-.03q.02-.01.02-.03v-.05l.08-.05.07-.05.04-.08q.01-.04.05-.06.03-.04.1-.06l.12-.05.08-.07q.03-.04.08-.07l.09-.02.11-.03.12-.02.09-.01q.1 0 .18.02.1.03.19.03l.15-.01.14-.02q.18 0 .32.04.13.03.23.1.1.05.17.11l.15.13.14.1q.06.06.15.07.02.08.09.12.07.04.13.1 0 .06.03.12l.06.12.06.1.04.12q.03.07.02.13l.02.12q.02.1.07.2l.06.18q.02.06.02.13l.01.12.05.23q.02.1.02.23zm-.88-.05q0-.06-.03-.1l-.05-.1q-.04-.12-.05-.25 0-.14-.03-.26-.03-.09-.1-.2l-.18-.22-.2-.2q-.1-.08-.19-.12l-.03-.06-.07-.01-.07-.01-.18-.07q-.1-.04-.2-.04-.15 0-.23.05-.08.04-.13.1l-.12.09q-.05.04-.14.04 0 .06-.03.11l-.06.09-.08.08q-.04.04-.05.1l-.03.12-.01.2-.01.21v.15l-.02.04-.01.04-.02.24v.24l.01.14.04.21.04.25.05.25.06.2.04.14q.02.05.05.07l.05.07.02.04.02.04q.04.05.1.07.06.02.12.07.06.01.1.04l.06.06.1.04q.06.02.2.02.06 0 .08-.02l.07-.04q.04-.02.09-.02h.08q.07-.08.17-.15.1-.07.16-.15l.02-.06.01-.05q.02-.03.04-.03.03 0 .04-.02.06-.09.08-.2.03-.1.1-.2.02-.04.06-.07.05-.04.07-.09l.03-.1V4.6v-.13l.02-.11q0-.05.03-.1l.05-.11.04-.11.02-.09zM14.87 4q0 .15-.03.28l-.04.27-.01.18-.02.18q-.02.07-.06.13l-.08.13-.08.13q-.04.06-.06.13l-.03.1-.01.12-.04.11q-.02.06-.06.1-.03.04-.07.06-.04.01-.07.05-.03.03-.04.08-.01.05-.04.09h-.05q-.03.02-.03.05 0 .03-.03.06-.05.05-.15.11l-.23.12q-.12.07-.27.12l-.28.1-.24.08q-.12.03-.19.03-.05 0-.08-.02-.02 0-.03-.02l-.03-.02-.05-.01-.1.01-.1.01q-.07 0-.13-.04l-.12-.08-.14-.09q-.08-.04-.2-.03l-.04-.06-.06-.08-.05-.08-.04-.05-.08-.04q-.05-.01-.09-.05l-.03-.04q0-.02-.03-.04h-.04q-.02 0-.03-.03l-.03-.04-.02-.06-.04-.06q-.01-.02-.05-.03 0-.06-.04-.1l-.05-.11-.03-.12q0-.05-.03-.1l-.05-.1-.06-.06-.05-.08-.01-.1.01-.18.02-.18q0-.1-.03-.19-.03-.1-.03-.2 0-.2.05-.38.04-.19.04-.38 0-.09-.02-.16l-.02-.16.02-.12q.02-.06.08-.1v-.03-.03l.01-.05.03-.07.03-.1.01-.07q0-.04.02-.06l.04-.04.04-.04q.03-.02.04-.05.04-.06.03-.12-.01-.07.02-.12l.07-.03.04-.09.03-.03q.01-.02.03-.02l.03-.03.01-.03q0-.03.02-.05.02-.03.06-.05l.08-.05.03-.08q.02-.04.05-.06.04-.04.1-.06.08-.02.13-.05l.07-.07.1-.07.08-.02.1-.03.13-.02.09-.01q.1 0 .18.02.1.03.19.03l.15-.01.14-.02q.18 0 .31.04.14.03.23.1l.18.11.15.13.13.1q.07.06.16.07.02.08.09.12.07.04.13.1 0 .06.03.12l.06.12.06.1.04.12.02.13.02.12.06.2q.05.09.07.18.02.06.02.13l.01.12.05.23q.02.1.02.23zm-.88-.05q0-.06-.03-.1l-.05-.1q-.04-.12-.05-.25 0-.14-.04-.26-.02-.09-.1-.2-.07-.11-.17-.22l-.2-.2q-.1-.08-.19-.12l-.04-.06-.06-.01-.07-.01-.19-.07q-.08-.04-.2-.04-.14 0-.22.05-.08.04-.14.1l-.11.09q-.05.04-.14.04 0 .06-.03.11l-.07.09-.07.08q-.04.04-.06.1l-.02.12-.01.2-.02.21v.15l-.01.04-.02.04v.24l-.01.24v.14l.04.21.05.25.05.25.05.2.05.14q.02.05.05.07l.05.07.01.04q0 .02.03.04.04.05.1.07.06.02.11.07.07.01.1.04l.06.06.1.04q.06.02.2.02.07 0 .08-.02l.08-.04q.04-.02.09-.02h.08q.07-.08.17-.15.1-.07.16-.15.02-.03.01-.06 0-.03.02-.05.01-.03.04-.03l.04-.02q.06-.09.08-.2.03-.1.09-.2.02-.04.07-.07.05-.04.07-.09l.02-.1.01-.12v-.13l.02-.11q0-.05.03-.1l.04-.11.05-.11.02-.09zM19.67 4.13q-.02.1-.06.18l-.08.17-.08.18q-.03.09-.03.18 0 .06-.02.07l-.04.03-.04.05-.01.12-.02.15q0 .1-.03.23l-.06.25-.07.24-.08.2q-.04.08-.08.11l-.02.07v.07l-.03.05-.03.05-.05.16q-.01.05-.03.07-.01.03-.06.06l-.14.1-.1.07q-.07.04-.12.04-.07 0-.14-.03l-.13-.07-.13-.08-.13-.07v-.02q0-.03-.03-.07l-.02-.07.02-.02q0-.06-.02-.1l-.01-.11q0-.04.05-.15l.1-.24.13-.24.09-.16q.04-.05.09-.08.05-.05.07-.1.04-.09.03-.18 0-.1.02-.18l.05-.08.04-.08q.03-.1.02-.18v-.18l.05-.13q.04-.07.04-.14l-.01-.1-.01-.12v-.2-.19q0-.18-.05-.34-.04-.15-.2-.25l-.04-.06h-.06L18.17 3l-.06-.06q-.03-.03-.1-.05-.06-.03-.16-.03-.14 0-.24.05-.1.06-.18.14l-.17.17q-.08.09-.18.15l-.01.1q-.02.05-.06.09l-.07.07-.05.07-.02.06-.01.06q-.03.05-.09.08-.05.04-.07.1-.03.06-.03.14l-.01.13q0 .04-.02.06l-.02.04-.02.03-.02.04-.01.2q0 .09-.05.18l.07.2q.04.08.04.19 0 .12-.04.23-.03.12-.03.24 0 .1.05.18-.06.16-.1.33-.02.16-.07.33l-.12.07q-.06.02-.13.02-.12 0-.24-.03-.11-.03-.23-.04-.01-.05-.05-.08l-.08-.07-.07-.07q-.02-.05-.02-.12 0-.05.03-.12.04-.07.05-.14v-.12-.12q0-.12.03-.23.04-.12.05-.24V5.1v-.13l.02-.14q.02-.07.06-.12l-.02-.09-.01-.1q0-.04.02-.07l.01-.08q0-.04-.02-.06-.03-.03-.03-.06l.03-.03-.02-.1v-.1q0-.1.03-.21.04-.1.04-.22l-.01-.19-.02-.18.02-.12.03-.12.03-.11.01-.13-.01-.1-.04-.09-.03-.09-.01-.1q0-.19.1-.37t.24-.3h.03q.05 0 .08-.02l.08-.02q.11 0 .19.06.08.05.17.08l.1.32q.04.16.04.33l.09-.03.08-.05.08-.05.09-.03.07-.06.05-.09.06-.08.07-.07.16-.08.23-.07.25-.06.18-.02.13.01.12.04.11.05.13.05.05.01.06.02.09.05.08.07.09.07.1.05q.02.07.06.12l.1.1.05.17.07.15.07.15q.03.08.03.17l-.01.1-.01.07v.06l.04.04.03.04.01.06v.18l-.01.2.02.18q.02.1.08.18zM24.2 3.38q0 .1-.03.23t-.1.25q-.05.1-.15.19-.09.07-.22.07-.1 0-.2-.05-.1-.06-.18-.14-.05-.09-.05-.18-.01-.1-.07-.17v-.05l.01-.08q.02-.04.02-.1l.01-.12q.02-.06.02-.13 0-.04-.05-.12l-.1-.18-.13-.17-.09-.1h-.03l-.04.01-.03-.06-.2-.06-.16-.02-.18-.01-.18-.01-.12-.02-.13-.01-.12.03q-.07.02-.15.07l-.15.09q-.06.04-.08.08-.03.03-.06.12l-.05.2-.05.2-.02.14.06.1.08.07q.04.03.07.08.03.04.04.1.09.02.14.06l.11.06.13.05q.07.02.18 0l.12.09q.06.04.1.1.03-.03.06-.03h.16l.12.05.13.04.13.03q.07.01.12.05.09.05.14.13.05.08.11.14l.05-.01h.04q.06 0 .1.03l.1.07.08.08q.05.04.1.05l.05.11q.02.06.07.1v.47q-.03.06-.03.1l.02.1.04.1.04.1.02.09-.04.1-.03.08-.03.09v.11l-.12.2q-.04.12-.12.21l-.05.03v.05l-.06.04-.03.06-.02.02-.03.02-.06.03-.07.07q-.02.04-.07.07-.06.04-.15.04-.08 0-.15.04-.07.03-.13.08t-.12.06h-.33l-.14.01-.14.01-.18-.01-.18-.04-.18-.04-.19-.02q-.03-.04-.07-.06l-.08-.03h-.08l-.08-.04-.1-.08-.09-.1-.1-.08-.1-.07q0-.04-.04-.13l-.06-.18-.07-.18-.03-.13.02-.18.01-.19q0-.06.05-.12.04-.07.11-.12l.14-.08q.08-.03.13-.03.12 0 .22.05l.2.12.01.17.05.2.07.18q.05.08.12.13h.03l.05.02.02.06h.17q.02 0 .03.02l.02.02.03.01.11.01H22.12l.11.05.09-.04.12-.03.1-.02q.06-.02.08-.05l.14-.19.13-.2v-.17-.19q0-.1-.02-.15l-.05-.11-.07-.1-.05-.12-.08-.03-.1-.03-.09-.04q-.04-.02-.07-.06-.1 0-.18-.03L22 4.7l-.1.01h-.1l-.21-.02-.2-.07-.2-.06q-.09-.03-.19-.02-.04-.06-.13-.14l-.17-.16-.16-.14-.09-.11-.05-.11-.04-.12-.04-.11q-.02-.06-.07-.1.04-.06.04-.15 0-.08-.02-.15-.02-.07-.02-.15 0-.06.02-.1l.03-.11.04-.12v-.12q.24-.3.44-.66l.13-.08q.07-.03.12-.08.15-.12.29-.18.14-.06.34-.06.06 0 .12-.03.05-.04.11-.06l.1-.02.13-.01h.23q.13 0 .23.03t.2.03q.05 0 .1.04l.1.07.27.13.29.11.08.1.1.09.11.08.1.09.08.28.09.29.07.29q.03.14.03.28zM31.7 6.3q0 .06-.04.12t-.1.1q-.07.06-.14.08-.08.03-.14.03-.09 0-.17-.03-.09-.04-.16-.1-.07-.05-.12-.12-.05-.08-.08-.17-.11-.03-.23-.09-.1-.05-.18-.15-.05 0-.1.03l-.07.07-.06.08-.08.06-.1.05q-.04 0-.09.04-.08.06-.15.14-.06.08-.16.13l-.1.03-.15.04-.16.03-.12.03-.02-.02-.03.02q-.07.02-.14 0h-.14l-.16.02h-.16l-.16-.02q0-.02-.03-.04l-.04-.03-.03-.03v-.06q-.06 0-.11-.03l-.1-.05-.1-.04q-.05-.02-.11-.02-.1-.18-.3-.27-.11-.12-.2-.25-.1-.14-.23-.24l.01-.04-.01-.1q-.01-.04-.04-.07l-.03-.05-.04-.07v-.07-.08l-.02-.08q0-.04-.03-.07.06-.08.06-.19v-.2-.13q.01-.06.05-.1-.01-.07-.04-.13l-.02-.13v-.02q.05-.04.06-.09.02-.05 0-.1.13-.08.22-.2.08-.13.14-.27.08-.05.14-.12.07-.07.11-.15.07-.01.11-.04l.1-.06.09-.08.09-.07.11-.05q.06-.02.11-.06.05-.03.08-.07.04-.04.09-.06-.06-.1-.1-.21l-.06-.25-.04-.26v-.24-.14-.2-.19-.12l.04-.1.05-.07.01-.05.01-.06.05-.1.07-.1.05-.1q.03-.06.03-.11l.17-.12q.08-.07.14-.15l.05-.01q.02-.01.03-.05l.05.01h.16l.17-.03.16-.03.17-.01q.3 0 .62.1l.16.16q.09.09.15.18.12.19.2.4.07.2.07.4 0 .08-.02.15l-.05.13-.03.13v.1l-.07.1-.05.07q-.03.03-.04.07-.02.05-.01.12-.07.07-.11.15l-.08.16-.24.16-.22.18q-.1.1-.22.19-.1.1-.21.18 0 .06.04.1l.07.08.08.08q.04.03.06.09.08.07.14.16.06.09.16.14 0 .06.05.14l.11.15q.06.07.12.11.06.05.08.04v.02l.02.07.06.1.07.09q.03.04.05.04.07-.08.11-.17l.06-.2.03-.03.03-.03.04-.03.03-.03q0-.06.03-.11l.04-.1.05-.09q.02-.04.02-.1l.18-.14q.1-.06.21-.06.05 0 .08.02l.08.04.07.04q.04.03.08.03l.02.2.02.2q0 .12-.04.23l-.1.23-.1.22q-.07.1-.1.21l-.07.1-.09.09-.07.09q-.03.04-.03.1 0 .08.03.14l.09.11.11.1q.06.04.1.1.03.08.08.15l.11.13.1.14q.05.08.05.18zm-1.86-5.25q0-.06-.05-.1-.04-.05-.1-.09-.06-.03-.13-.04L29.44.8h-.02l-.22.24q-.12.12-.25.22 0 .14-.03.28-.03.13-.03.27 0 .07.02.11.03.05.04.12V2.2q0 .07.03.12l.08-.01.06-.05.05-.04q.04-.03.08-.03.03-.1.08-.16.06-.08.15-.12.01-.07.04-.12l.07-.1.09-.09.08-.12.06-.17q.02-.11.02-.27zm.03 4.14q0-.06-.05-.1l-.07-.08-.09-.13-.07-.14-.03-.03q-.02 0-.03-.03l-.03-.08q0-.05-.02-.08-.04-.04-.09-.06l-.08-.05-.03-.04-.03-.05-.1-.1-.11-.12-.1-.12-.05-.15q-.05-.02-.08-.06l-.06-.08-.07-.07q-.04-.04-.1-.04-.13 0-.21.07l-.05.09-.07.07-.07.06-.07.07-.08.14-.06.17-.08.15q-.05.07-.11.1v.02l.01.02-.02.1q-.02.03-.02.07l.01.07q.02.03.02.07v.13l-.01.12q0 .18.05.28.05.09.11.14l.13.1q.06.06.08.15l.08.04.12.06.11.05.08.02q.05 0 .09-.04.04-.04.08-.04.03 0 .05.02l.04-.01.05-.01.16-.02.11-.03.11-.04.14-.08.06-.02.06-.03.01-.04.01-.04.05-.05.06-.05.05-.06q.02-.02 0-.06.08 0 .12-.05l.09-.08zM38.74 3.5l-.01.07-.02.06q0 .04.02.07l.01.07-.02.16-.03.16V4.32l-.02.12q-.01.06-.06.1l.02.1q0 .06-.02.1 0 .05-.03.1l-.03.1v.11q-.06.05-.1.11l-.07.11v.05h-.05l-.07.12-.07.1q-.01.06-.03.08l-.02.02h-.03l-.03.01q-.08.06-.13.12-.04.06-.1.11-.05.05-.12.08-.07.03-.19.02-.08.04-.13.1-.05.07-.08.15l-.1.02-.1.04-.1.06-.1.04-.03.06H36.83q-.1.03-.19.09l-.17.1-.17.04-.17.04-.13.03-.12.02-.12-.01-.1-.01q-.07 0-.12.02-.05.02-.11.02h-.04l-.04-.02-.03-.05q-.11-.03-.18-.02h-.1q-.04 0-.09-.05l-.1-.17-.04-.08-.03-.07-.02-.07v-.09l.01-.22q.02-.1.02-.22l-.02-.13-.01-.13v-.06-.06-.07q-.02-.02-.02-.06l.02-.08.03-.09v-.1-.1l.01-.12q.02-.05.02-.11 0-.09-.04-.17-.04-.09-.04-.18l.01-.15.01-.17.02-.18.02-.17q0-.14-.09-.24l.02-.05v-.04l-.01-.1-.02-.1q0-.07.03-.13l.06-.13-.02-.12v-.12l-.04-.1q-.02-.04-.02-.1l.01-.1q.02-.03.02-.08 0-.08-.03-.15-.03-.08-.03-.16l.01-.08.05-.05v-.02q0-.05-.02-.09-.02-.04 0-.09v-.08-.1q0-.13-.03-.25-.04-.13-.04-.2 0-.08.03-.15l.06-.14-.01-.05q0-.07.03-.1.04-.04.06-.1.06-.04.14-.05H35.39q.14.02.29.02l.07-.01.08-.02q.18 0 .33.04l.33.08h.14q.07 0 .13.02.06.01.1.04l.1.04q.05.02.12.02h.11l.07.07q.03.05.07.07l.08.06.08.06.02.04.03.04q.03.02.06.01l.05.01q.05.04.06.09.02.05.06.08.06.06.15.08.09.03.16.08.04.1.1.18l.09.18.02.05.01.03.05.03.02.08v.08l.09.15.1.17q.06.08.1.17.04.08.05.14.02.06 0 .13v.13q0 .07.02.13l.01.12q0 .07-.03.13-.02.06-.02.13 0 .06.02.11.03.06.03.12zm-.89.21l-.02-.2-.06-.2-.07-.21-.05-.2v-.1l.01-.1-.02-.07-.05-.15-.07-.19-.07-.2-.06-.16-.04-.1-.12-.08-.13-.1-.12-.09q-.07-.03-.14-.03h-.01l-.03-.03-.04-.02-.08-.03-.11-.02h-.12l-.1-.01q-.06 0-.12-.03l-.13-.04-.12-.03q-.07-.02-.13-.01h-.02l-.01.04v.02l-.01.03v.07q0 .07-.04.15-.03.08-.03.15l.01.08q.02.02.02.06 0 .03-.03.06-.02.02-.02.05v.07l.02.06v.19l-.02.18.02.41q.02.2.02.41l-.01.1q0 .04-.03.09.05.13.06.27l.01.28-.01.18-.01.16q0 .04.02.06 0 .08-.03.15-.02.07-.02.16l.02.26.01.26-.01.24-.02.24h.08l.14-.01.12-.05.12-.07.13-.06.11-.03.2-.07.2-.06.1-.03q.1-.17.23-.32l.27-.29h.05v-.05h.04q.03 0 .05-.03l.01-.03.01-.05.04-.02q.03-.01.05-.04.03-.03.04-.12l.03-.19.02-.19.01-.15q.01-.06.04-.1l.02-.12zM42.94 2.81q0 .08-.03.16-.03.07-.03.15v.25l-.01.11-.04.13-.03.11v.09q-.06.04-.1.09-.02.04-.01.12l-.08.04q-.03.02-.09.02-.03.07-.08.13t-.12.1-.12.1l-.12.1-.19-.02q-.08 0-.18-.03-.1-.13-.14-.3l-.08-.33.07-.1q.05-.08.12-.15l.13-.15.1-.07q.02-.1.06-.18.03-.1.03-.2 0-.12-.09-.2-.1.03-.15.1-.06.06-.13.1-.07 0-.12.02-.06.02-.13 0-.04.02-.06.05l-.04.05-.06.06q-.03.03-.1.04v.03l-.03.05-.03.05-.01.03h-.06l-.06.1q-.01.05-.05.1l-.1.12-.1.13-.07.15q-.03.07-.03.14v.09q.02.03.02.07 0 .1-.03.18l-.02.18v.11q.03.06.03.12 0 .09-.04.17-.03.08-.03.18l.02.21.03.21.03.22.02.22q0 .14-.05.25l-.07.25-.2.11q-.12.07-.22.07-.09 0-.13-.05-.05-.05-.06-.13l-.2-.1q0-.06-.03-.1l-.06-.1-.05-.1q-.03-.05-.03-.12 0-.07.03-.15l.02-.16v-.05l-.01-.04.01-.05.03-.04.02-.04.01-.06v-.04l-.04-.04-.03-.04-.01-.06.02-.32q.02-.16.02-.33l-.01-.2q-.02-.1-.08-.18l.03-.07.01-.09-.02-.2-.02-.2q0-.1.03-.18.03-.08.03-.23l.01-.08.01-.07-.01-.07-.05-.12-.03-.15-.02-.18q0-.09.03-.19.02-.1.02-.25 0-.1.06-.18.07-.07.16-.12l.2-.06q.1-.03.19-.03.11 0 .22.05.1.05.15.15l-.02.26q-.02.13 0 .26v.14q.06 0 .1-.03l.07-.07.06-.08q.04-.03.1-.04.02-.07.07-.13l.1-.12q.11-.05.21-.12l.2-.14q.1-.07.22-.12.1-.05.25-.05.12 0 .21.05.1.06.18.14h.04q.12 0 .23.05.11.06.2.14l.12.12q.04.05.05.1.02.06.02.13l.01.17.02.1v.08zM47.2 5.9q0 .07-.03.12l-.03.08-.02.1v.11q-.04.03-.05.06l-.03.08-.02.08q-.01.04-.04.07-.09-.03-.18-.03h-.19l-.15-.01q-.05-.01-.12-.08-.05-.05-.1-.04h-.09q-.04 0-.06-.05-.02-.05-.02-.21v-.06l-.04-.05q-.1.03-.2.1-.09.05-.17.12l-.17.12q-.09.05-.18.04l-.09.1-.1.07-.1.03-.14.03-.15.02-.1.01q-.1 0-.2-.06l-.24-.11-.22-.11q-.1-.05-.16-.03-.05-.04-.07-.1-.02-.05-.07-.1l-.12-.07q-.06-.03-.1-.09-.04-.04-.05-.09l-.03-.1-.04-.1q-.01-.05-.05-.09.02-.07.02-.17l.01-.21.04-.2q.03-.09.1-.13v-.03q0-.13.04-.21.04-.08.1-.15l.14-.12q.08-.06.14-.14.04-.03.08-.02l.08-.02.03-.05h.07l.04-.01.04-.04.04-.03.06-.02h.03l.03.02.06-.08.09-.07.08-.07q.04-.03.07-.08h.11l.04-.05.06-.04q.03-.02.08-.02l.06-.02.08-.03.08-.05.05-.04h.05l.07.01.07.02.1-.1q.06-.05.1-.12l.12-.06.14-.1q.07-.07.1-.13.05-.07.05-.13 0-.07-.03-.13l-.08-.12-.1-.13-.06-.12h-.02q-.05 0-.1-.05-.03-.05-.08-.06-.04-.02-.09-.02h-.19l-.08-.04q-.08.01-.13.06l-.1.09-.12.07q-.07.03-.18.02l-.14.32q-.06.17-.16.3l-.05.2q-.02.08-.09.14-.08.03-.17.03-.1 0-.2-.04-.12-.04-.21-.1-.1-.06-.17-.14-.06-.09-.06-.19t.04-.2q.05-.12.05-.23.06-.02.09-.07l.06-.1.06-.1q.03-.04.09-.06v-.04q0-.03.02-.05.02-.02 0-.08.2-.1.31-.3l.16-.05q.08-.02.15-.06.06-.02.11-.07l.14-.07q.1-.02.2 0l.2.01q.09 0 .15-.03t.14-.03h.17l.17.03q.04 0 .07.03l.07.03.19.03.1.01.09.07.15.16h.01q.06 0 .12.04t.1.1q.06.05.1.11l.05.1q.03.07.03.14t.03.14l.07.1.07.1.06.1q.03.06.03.12l-.02.16-.02.16q0 .07.03.13.04.06.04.14 0 .09-.04.17-.03.08-.03.17 0 .12.03.24l.09.24q-.03.07-.03.16 0 .12.03.24.02.1.02.22l-.01.11-.03.1-.03.1-.01.11q0 .13.03.26l.09.26zm-1-1.34v-.15q-.02-.07-.02-.15 0-.08-.03-.13-.03-.04-.12-.03h-.05q-.06.05-.11.12-.05.06-.11.1-.06.04-.13.06-.08.01-.12.08h-.02q-.06 0-.1.02l-.08.03-.1.03q-.04.02-.11 0l-.14.22q-.06.1-.18.16h-.07l-.15.01q-.08.02-.14.07-.06.04-.1.1-.04.06-.04.15 0 .1.04.17.03.05.08.09l.11.06q.06.03.1.1h.27q.04 0 .07.02l.08-.07q.04-.02.12-.02.1-.12.24-.18.14-.07.28-.11.01-.05.04-.08.03-.04.07-.06l.08-.05.06-.06q.03-.02.07-.1l.1-.14.08-.16q.04-.07.04-.1zM51.75 6.2q.02.02.02.05v.14q-.02.04-.02.1l.01.09.02.1q0 .07-.03.14l-.07.14-.06.13q-.03.07-.03.14l-.05.1-.1.2-.12.2q-.05.1-.08.12l-.1.05q-.03.04-.08.07-.04.04-.1.06-.04.03-.1.04-.02.05-.07.08l-.09.05-.1.05q-.04.03-.05.09h-.14l-.11.04-.11.04q-.05.03-.1.03l-.2.01h-.33l-.15-.01-.14-.04q-.07-.02-.11-.07l-.11-.03q-.06 0-.12-.03l-.05-.05-.27-.09q-.12-.04-.22-.1-.1-.07-.17-.17-.08-.1-.15-.24-.01-.05-.06-.07-.04 0-.08-.04 0-.06-.03-.1l-.05-.1-.05-.1q-.03-.06-.03-.12l.01-.09q.02-.04.02-.1v-.1l-.01-.08q0-.08.03-.13l.07-.1.09-.07.1-.1h.14q.2 0 .33.08.13.07.22.2.08.13.13.28l.07.33q0 .05.04.05.03 0 .07.03l.05.05.05.03q.11.04.23.03l.22.02.15.07q.07.04.15.04.06 0 .15-.04l.17-.1.15-.14.1-.12v-.06q0-.03.02-.05l.06-.03v-.06l.05-.03q.05-.1.12-.19l.16-.16v-.08q0-.07.02-.12l.07-.12-.04-.07-.03-.06v-.06l.02-.1q-.13.05-.2.1l-.15.08-.16.05q-.1.02-.25.02l-.04.02-.02.03-.03.03h-.25l-.19.02h-.1l-.05-.03-.05-.03-.08-.04-.22-.09q-.12-.04-.23-.1-.1-.04-.2-.12l-.18-.18-.17-.18q-.08-.1-.16-.17V5.3q0-.14-.05-.22l-.15-.18-.04-.33-.02-.32.02-.22.01-.22-.01-.1-.02-.1v-.07l.02-.06.02-.08.01-.13.02-.07.05-.14.04-.16.04-.11.14-.14q.06-.08.08-.18.06-.02.11-.06.05-.04.08-.09l.1-.08q.04-.04.1-.05v-.02q0-.04.03-.04l.06-.02.09-.07.1-.07.15-.06.18-.05.2-.06q.1-.03.19-.08l.14.01h.28l.14.02q.08.1.19.18l.23.12v-.12q-.01-.14.01-.28.03-.13.1-.25.08-.04.17-.06l.19-.02q.06 0 .1.03l.09.07.07.08.1.06q0 .05.03.1l.06.1.05.1q.03.04.03.1l-.02.2-.01.2-.01.1-.01.1.01.05.04.04v.1l.01.08q0 .05.02.09l.05.06q-.04.12-.05.25v.38q.02.06.02.13 0 .06-.02.1-.03.05-.03.1 0 .1.03.2l.05.2q.04.14.03.28v.28l.01.08.01.08v.07q-.02.03-.02.08 0 .1.03.21.03.1.03.22 0 .15-.04.3-.02.15-.13.26zM50.9 4l.01-.15q.03-.07.03-.14l-.02-.1-.03-.08-.03-.09.01-.1q-.04 0-.07-.04l-.06-.07-.06-.08-.06-.07q-.02-.03-.06-.05l-.08-.04-.05-.05-.05-.06q-.11-.08-.24-.13t-.27-.05q-.09 0-.16.02l-.13.04-.12.04q-.05.02-.11.02l-.13.19q-.06.09-.15.15l-.05.24-.06.2-.06.22q-.02.11-.02.27v.22l.02.16.06.15.11.18.06.11q.03.06.08.1l.09.07.1.04.08.08.1.06.05.01.12.03.12.03.07.01q.12 0 .23-.02.11-.03.23 0 .04 0 .06-.03l.04-.05.05-.03q.02-.01.07 0l.05-.09.08-.07.08-.07.07-.07q.03-.03.03-.07 0-.04.03-.08l.05-.03q.04-.01.04-.05 0-.11-.03-.21l-.05-.19-.05-.15-.02-.13zM56.82 4q0 .15-.03.28l-.04.27-.01.18-.02.18q-.02.07-.06.13l-.08.13-.08.13q-.04.06-.06.13l-.03.1-.01.12-.04.11q-.02.06-.06.1-.03.04-.07.06-.04.01-.07.05-.03.03-.04.08-.01.05-.04.09h-.06q-.02.02-.02.05 0 .03-.03.06-.05.05-.15.11l-.23.12q-.13.07-.27.12l-.28.1-.24.08q-.12.03-.19.03-.05 0-.08-.02-.02 0-.03-.02l-.03-.02-.05-.01-.1.01-.1.01q-.07 0-.13-.04l-.12-.08-.14-.09q-.08-.04-.2-.03l-.04-.06-.06-.08-.05-.08-.05-.05q-.03-.03-.08-.04-.04-.01-.08-.05l-.03-.04q0-.02-.03-.04h-.04q-.02 0-.03-.03l-.03-.04-.02-.06-.04-.06-.05-.03q0-.06-.04-.1l-.05-.11-.03-.12q0-.05-.03-.1l-.05-.1-.06-.06-.05-.08-.01-.1.01-.18.02-.18q0-.1-.03-.19-.03-.1-.03-.2 0-.2.05-.38.04-.19.04-.38 0-.09-.02-.16l-.02-.16.02-.12q.02-.06.08-.1v-.03-.03l.01-.05.03-.07.03-.1.01-.07q0-.04.02-.06l.04-.04.04-.04q.03-.02.04-.05.04-.06.03-.12-.01-.07.02-.12l.07-.03.04-.09.03-.03q.01-.02.03-.02l.03-.03.01-.03q0-.03.02-.05.02-.03.06-.05.05-.02.07-.05l.04-.08q.02-.04.05-.06.04-.04.1-.06.08-.02.13-.05l.07-.07.1-.07.07-.02.12-.03.12-.02.08-.01q.1 0 .19.02.1.03.19.03l.15-.01.14-.02q.18 0 .31.04.14.03.23.1l.18.11.15.13.13.1q.07.06.15.07.03.08.1.12.07.04.13.1 0 .06.03.12l.06.12.06.1.04.12.02.13.02.12.06.2.07.18q.02.06.02.13v.12l.06.23q.02.1.02.23zm-.88-.05q0-.06-.03-.1l-.05-.1q-.05-.12-.05-.25 0-.14-.04-.26-.02-.09-.1-.2-.07-.11-.17-.22l-.2-.2q-.1-.08-.19-.12l-.04-.06-.06-.01-.07-.01-.19-.07q-.09-.04-.2-.04-.14 0-.22.05-.08.04-.14.1l-.11.09q-.06.04-.14.04 0 .06-.03.11l-.07.09-.07.08q-.04.04-.06.1l-.02.12-.02.2v.21l-.01.15-.01.04-.02.04-.01.24v.38l.04.21.05.25.05.25.05.2.05.14q.02.05.05.07l.05.07.01.04.02.04q.05.05.1.07.07.02.12.07.07.01.1.04l.06.06.1.04q.06.02.2.02.07 0 .08-.02l.07-.04.1-.02H55q.07-.08.17-.15.1-.07.16-.15.02-.03.01-.06 0-.03.02-.05.01-.03.04-.03l.04-.02q.05-.09.08-.2.03-.1.09-.2.02-.04.07-.07.05-.04.07-.09l.02-.1.01-.12v-.13q0-.06.02-.11 0-.05.03-.1l.04-.11.05-.11.02-.09zM61.62 4.13q-.02.1-.06.18l-.09.17-.07.18q-.03.09-.03.18 0 .06-.03.07l-.03.03-.04.05-.01.12-.02.15q0 .1-.03.23l-.06.25-.07.24-.08.2q-.04.08-.08.11l-.02.07v.07q-.01.03-.04.05l-.03.05-.05.16q0 .05-.02.07-.01.03-.06.06l-.14.1-.1.07q-.07.04-.12.04-.07 0-.14-.03l-.13-.07-.13-.08-.13-.07v-.02q0-.03-.03-.07l-.02-.07.02-.02q0-.06-.02-.1l-.01-.11q0-.04.04-.15L59.9 6l.13-.24.09-.16q.04-.05.09-.08.05-.05.07-.1.04-.09.03-.18 0-.1.02-.18l.05-.08.04-.08q.03-.1.01-.18 0-.1.02-.18l.04-.13q.04-.07.04-.14l-.01-.1-.01-.12v-.2-.19q0-.18-.05-.34-.04-.15-.2-.25l-.04-.06h-.03-.03L60.11 3q-.01-.03-.05-.06-.03-.03-.1-.05-.06-.03-.16-.03-.14 0-.24.05-.1.06-.18.14l-.17.17q-.08.09-.18.15l-.01.1-.06.09-.07.07-.06.07v.06l-.02.06q-.03.05-.09.08-.05.04-.08.1-.02.06-.02.14l-.01.13q0 .04-.02.06l-.02.04-.02.03-.02.04-.01.2q0 .09-.05.18l.07.2q.04.08.04.19 0 .12-.04.23-.03.12-.03.24 0 .1.05.18-.06.16-.1.33-.02.16-.07.33l-.12.07q-.06.02-.13.02-.12 0-.24-.03-.11-.03-.23-.04-.01-.05-.05-.08l-.08-.07-.07-.07q-.03-.05-.03-.12 0-.05.04-.12.04-.07.05-.14v-.12l-.01-.12q0-.12.04-.23.04-.12.05-.24V5.1v-.13l.02-.14q.02-.07.06-.12l-.02-.09-.01-.1q0-.04.02-.07l.01-.08q0-.04-.02-.06-.03-.03-.03-.06l.03-.03-.02-.1v-.1q0-.1.03-.21.04-.1.04-.22l-.01-.19-.02-.18.02-.12.03-.12.02-.11.02-.13-.02-.1q0-.04-.03-.09l-.03-.09q-.02-.04-.02-.1 0-.19.1-.37t.25-.3h.03q.05 0 .08-.02l.08-.02q.1 0 .19.06.08.05.17.08l.1.32q.04.16.04.33l.08-.03.08-.05.08-.05.1-.03.07-.06.05-.09.06-.08.07-.07.16-.08.23-.07.25-.06.18-.02.13.01.12.04.11.05.13.05.05.01.06.02.09.05.08.07.09.07.1.05q.02.07.06.12l.1.1.05.17.07.15.07.15q.03.08.03.17l-.01.1-.01.07v.06l.04.04.03.04.01.06v.18l-.01.2.02.18q.02.1.08.18zM66.15 3.38q0 .1-.03.23t-.1.25q-.06.1-.15.19-.1.07-.22.07-.1 0-.2-.05-.1-.06-.18-.14-.05-.09-.05-.18-.01-.1-.07-.17v-.05l.01-.08q.02-.04.02-.1l.01-.12q.02-.06.02-.13 0-.04-.05-.12l-.1-.18-.14-.17q-.05-.08-.08-.1h-.03l-.04.01-.03-.06-.2-.06-.16-.02-.18-.01-.19-.01-.11-.02-.13-.01-.12.03q-.07.02-.15.07l-.15.09q-.06.04-.08.08-.03.03-.06.12l-.05.2-.05.2-.02.14.06.1.08.07q.04.03.07.08.03.04.04.1.09.02.14.06l.11.06.13.05q.07.02.18 0l.11.09q.07.04.11.1.03-.03.05-.03h.17l.12.05.13.04.13.03q.07.01.12.05.08.05.14.13.05.08.11.14l.05-.01h.04q.06 0 .1.03l.1.07.08.08q.05.04.1.05l.05.11q.02.06.07.1v.35l-.01.12-.02.1.02.1.04.1.04.1.02.09-.04.1-.03.08-.03.09v.11l-.12.2q-.04.12-.12.21l-.05.03v.05l-.06.04-.03.06-.02.02-.03.02-.06.03-.07.07q-.02.04-.07.07-.06.04-.15.04-.08 0-.15.04-.07.03-.13.08t-.12.06h-.33l-.14.01-.14.01-.18-.01-.18-.04-.18-.04-.19-.02q-.03-.04-.07-.06L63 7.01h-.08l-.08-.04-.1-.08-.09-.1-.1-.08-.1-.07q0-.04-.04-.13l-.06-.18-.07-.18-.03-.13.02-.18.01-.19q0-.06.05-.12.04-.07.11-.12l.14-.08q.08-.03.13-.03.12 0 .22.05l.2.12.01.17.05.2q.02.1.07.18.05.08.11.13h.04l.04.02.03.06h.17q.02 0 .03.02l.02.02.03.01.11.01H64.07l.1.05.1-.04.12-.03.1-.02q.06-.02.08-.05l.14-.19.13-.2v-.17-.19q0-.1-.02-.15-.02-.06-.06-.11l-.06-.1-.05-.12-.08-.03-.1-.03-.09-.04q-.04-.02-.07-.06-.1 0-.18-.03l-.18-.08-.1.01h-.1l-.22-.02-.2-.07-.19-.06q-.09-.03-.19-.02-.04-.06-.13-.14l-.17-.16-.16-.14-.09-.11-.05-.11-.04-.12-.04-.11q-.02-.06-.07-.1.04-.06.04-.15 0-.08-.02-.15-.02-.07-.02-.15 0-.06.02-.1l.03-.11.04-.12v-.12q.24-.3.44-.66l.13-.08q.07-.03.12-.08.15-.12.29-.18.14-.06.34-.06.06 0 .12-.03.05-.04.11-.06l.1-.02.13-.01h.23q.13 0 .22.03.1.03.21.03.05 0 .1.04l.1.07.27.13.29.11.08.1.1.09.11.08.1.09.08.28q.05.14.08.29.05.14.08.29.03.14.03.28z" style="-inkscape-font-specification:Margarine"/></g></svg>